<svg width="53" height="24" viewBox="0 0 53 24" fill="none" xmlns="http://www.w3.org/2000/svg">
<path d="M6.624 6.572L6.656 7.948V23.5H2.24V9.804C2.24 8.012 2.112 6.75333 1.856 6.028C1.62133 5.30267 1.10933 4.428 0.32 3.404L4.16 0.716C4.77867 1.12133 5.35467 1.81467 5.888 2.796C7.57333 1.40933 8.71467 0.716 9.312 0.716C9.90933 0.716 10.848 1.28133 12.128 2.412C13.4293 3.52133 14.24 4.31067 14.56 4.78C14.88 5.228 15.04 5.82533 15.04 6.572V23.5H10.592V7.212C10.592 7.02 10.5067 6.78533 10.336 6.508C10.1867 6.20933 9.94133 5.87867 9.6 5.516C9.28 5.15333 8.97067 4.972 8.672 4.972C8.39467 4.972 8.04267 5.14267 7.616 5.484C7.18933 5.804 6.85867 6.16667 6.624 6.572ZM24.433 10.22V13.772H22.865C22.5877 13.8573 22.257 14.0493 21.873 14.348C21.489 14.6467 21.2223 14.9133 21.073 15.148C20.945 15.3827 20.881 15.8307 20.881 16.492C20.881 17.132 20.977 17.58 21.169 17.836C21.3823 18.092 21.7663 18.4013 22.321 18.764C22.8757 19.1267 23.345 19.308 23.729 19.308C24.1343 19.308 24.625 19.1267 25.201 18.764C25.7983 18.4013 26.1717 18.06 26.321 17.74C26.5343 17.228 26.641 16.2467 26.641 14.796C26.641 13.324 26.577 12.3213 26.449 11.788C26.321 11.2333 26.065 10.572 25.681 9.804L29.265 7.308C29.905 7.90533 30.385 8.876 30.705 10.22H35.153V13.772H31.057V16.812C31.057 17.3027 31.1423 17.74 31.313 18.124C31.633 18.9133 31.9423 19.308 32.241 19.308C32.5397 19.308 32.9983 18.9773 33.617 18.316L36.785 20.524C35.9957 21.3987 35.1637 22.1773 34.289 22.86C33.4143 23.5427 32.7317 23.884 32.241 23.884C31.4517 23.884 30.193 22.956 28.465 21.1C26.353 22.956 24.7743 23.884 23.729 23.884C22.897 23.884 21.6597 23.2333 20.017 21.932C18.3957 20.6093 17.329 19.532 16.817 18.7C16.5823 18.3373 16.465 17.58 16.465 16.428C16.465 15.2547 16.5823 14.4973 16.817 14.156C17.2863 13.452 18.225 12.524 19.633 11.372C18.6943 10.4333 18.0863 9.74 17.809 9.292C17.553 8.82267 17.425 8.012 17.425 6.86C17.425 5.68667 17.5743 4.89733 17.873 4.492C18.1717 4.06533 19.0677 3.32933 20.561 2.284C22.0543 1.23867 23.0783 0.716 23.633 0.716C24.209 0.716 25.0303 1.12133 26.097 1.932C27.185 2.72133 28.0383 3.44667 28.657 4.108L25.585 6.316C25.4143 6.06 25.1157 5.772 24.689 5.452C24.2837 5.132 23.953 4.972 23.697 4.972C23.4623 4.972 23.1637 5.12133 22.801 5.42C22.4383 5.69733 22.193 5.964 22.065 6.22C21.937 6.476 21.873 6.83867 21.873 7.308C21.873 7.77733 21.937 8.172 22.065 8.492C22.2143 8.812 22.5023 9.18533 22.929 9.612C23.377 10.0173 23.7503 10.22 24.049 10.22H24.433ZM42.3888 2.476C44.0954 1.30267 45.2581 0.716 45.8767 0.716C46.4954 0.716 47.4448 1.28133 48.7248 2.412C50.0261 3.52133 50.8368 4.31067 51.1568 4.78C51.4768 5.228 51.6368 5.82533 51.6368 6.572C51.6368 8.02267 51.5194 8.88667 51.2848 9.164C50.8368 9.84667 50.1434 10.6467 49.2048 11.564C50.5061 12.8013 51.3168 13.7507 51.6368 14.412C51.8074 14.86 51.9888 16.2253 52.1808 18.508C52.3728 20.7693 52.4688 22.4333 52.4688 23.5H47.6688C47.6688 22.54 47.5834 21.036 47.4128 18.988C47.2421 16.94 47.0501 15.7027 46.8368 15.276C46.6447 14.8493 46.4101 14.476 46.1328 14.156H43.2847V23.5H38.8687V9.484C38.8687 7.756 38.7407 6.56133 38.4847 5.9C38.2501 5.21733 37.7381 4.38533 36.9487 3.404L40.7888 0.716C41.4714 1.164 42.0047 1.75067 42.3888 2.476ZM43.2847 7.948V10.412H44.5328C44.8314 10.412 45.2154 10.1773 45.6848 9.708C46.1541 9.23867 46.4528 8.844 46.5808 8.524C46.7301 8.18267 46.8048 7.83067 46.8048 7.468C46.8048 7.10533 46.7301 6.78533 46.5808 6.508C46.4528 6.20933 46.2608 5.87867 46.0048 5.516C45.7488 5.15333 45.5354 4.972 45.3647 4.972C44.7888 4.972 44.0634 5.11067 43.1888 5.388C43.2528 6.22 43.2847 7.07333 43.2847 7.948Z" fill="#10D118"/>
</svg>
